<svg width="20" height="20" viewBox="0 0 20 20" fill="none" xmlns="http://www.w3.org/2000/svg">
    <path d="M4.16686 15.2085C4.00853 15.2085 3.8502 15.1502 3.7252 15.0252C3.48353 14.7835 3.48353 14.3835 3.7252 14.1419L15.3919 2.4752C15.6335 2.23353 16.0335 2.23353 16.2752 2.4752C16.5169 2.71686 16.5169 3.11686 16.2752 3.35853L4.60853 15.0252C4.48353 15.1502 4.3252 15.2085 4.16686 15.2085Z" fill="#D30707"/>
    <path d="M12.7248 15.2087H4.1665C3.82484 15.2087 3.5415 14.9254 3.5415 14.5837V6.02539C3.5415 5.68372 3.82484 5.40039 4.1665 5.40039C4.50817 5.40039 4.7915 5.68372 4.7915 6.02539V13.9587H12.7248C13.0665 13.9587 13.3498 14.2421 13.3498 14.5837C13.3498 14.9254 13.0665 15.2087 12.7248 15.2087Z" fill="#D30707"/>
    <path d="M17.0832 18.958H2.9165C2.57484 18.958 2.2915 18.6747 2.2915 18.333C2.2915 17.9913 2.57484 17.708 2.9165 17.708H17.0832C17.4248 17.708 17.7082 17.9913 17.7082 18.333C17.7082 18.6747 17.4248 18.958 17.0832 18.958Z" fill="#D30707"/>
    </svg>
    