<svg width="80" height="80" viewBox="0 0 80 80" fill="none" xmlns="http://www.w3.org/2000/svg">
    <rect width="80" height="80" rx="40" fill="#FF261F"/>
    <path d="M46 54.3336H34C29.6 54.3336 29 51.9336 29 49.3336V37.627C29 37.0803 29.4533 36.627 30 36.627C30.5467 36.627 31 37.0803 31 37.627V49.3336C31 51.6536 31.4 52.3336 34 52.3336H46C48.6 52.3336 49 51.6536 49 49.3336V37.627C49 37.0803 49.4533 36.627 50 36.627C50.5467 36.627 51 37.0803 51 37.627V49.3336C51 51.9336 50.4 54.3336 46 54.3336Z" fill="white"/>
    <path d="M49.3332 38.3337H30.6665C27.4398 38.3337 25.6665 36.5603 25.6665 33.3337V30.667C25.6665 27.4403 27.4398 25.667 30.6665 25.667H49.3332C52.5598 25.667 54.3332 27.4403 54.3332 30.667V33.3337C54.3332 36.5603 52.5598 38.3337 49.3332 38.3337ZM30.6665 27.667C28.5598 27.667 27.6665 28.5603 27.6665 30.667V33.3337C27.6665 35.4403 28.5598 36.3337 30.6665 36.3337H49.3332C51.4398 36.3337 52.3332 35.4403 52.3332 33.3337V30.667C52.3332 28.5603 51.4398 27.667 49.3332 27.667H30.6665Z" fill="white"/>
    <path d="M42.4266 43.667H37.5732C37.0266 43.667 36.5732 43.2137 36.5732 42.667C36.5732 42.1203 37.0266 41.667 37.5732 41.667H42.4266C42.9732 41.667 43.4266 42.1203 43.4266 42.667C43.4266 43.2137 42.9732 43.667 42.4266 43.667Z" fill="white"/>
    </svg>

    