<svg width="80" height="80" viewBox="0 0 80 80" fill="none" xmlns="http://www.w3.org/2000/svg">
    <rect width="80" height="80" rx="40" fill="#1971F6"/>
    <path d="M46 35.5067C45.4533 35.5067 45 35.0534 45 34.5067V32.6667C45 31.2667 44.4 29.9067 43.36 28.9601C42.3067 28.0001 40.9467 27.5601 39.5067 27.6934C37.1067 27.9201 35 30.3734 35 32.9334V34.2267C35 34.7734 34.5467 35.2267 34 35.2267C33.4533 35.2267 33 34.7734 33 34.2267V32.9201C33 29.3334 35.8933 26.0267 39.32 25.6934C41.32 25.5067 43.24 26.1334 44.7067 27.4801C46.16 28.8001 47 30.6934 47 32.6667V34.5067C47 35.0534 46.5467 35.5067 46 35.5067Z" fill="white"/>
    <path d="M43.9998 54.3337H35.9998C29.8398 54.3337 28.6931 51.467 28.3998 48.6803L27.3998 40.6937C27.2531 39.2537 27.1998 37.187 28.5998 35.6403C29.7998 34.307 31.7864 33.667 34.6664 33.667H45.3331C48.2264 33.667 50.2131 34.3203 51.3998 35.6403C52.7864 37.187 52.7464 39.2537 52.5998 40.667L51.5998 48.6803C51.3064 51.467 50.1598 54.3337 43.9998 54.3337ZM34.6664 35.667C32.4131 35.667 30.8664 36.107 30.0798 36.987C29.4264 37.707 29.2131 38.8137 29.3864 40.467L30.3864 48.4537C30.6131 50.587 31.1998 52.347 35.9998 52.347H43.9998C48.7998 52.347 49.3864 50.6003 49.6131 48.4803L50.6131 40.467C50.7864 38.8403 50.5731 37.7337 49.9198 37.0003C49.1331 36.107 47.5864 35.667 45.3331 35.667H34.6664Z" fill="white"/>
    <path d="M44.56 41.5329C43.8134 41.5329 43.2134 40.9329 43.2134 40.1995C43.2134 39.4662 43.8134 38.8662 44.5467 38.8662C45.28 38.8662 45.88 39.4662 45.88 40.1995C45.88 40.9329 45.2934 41.5329 44.56 41.5329Z" fill="white"/>
    <path d="M35.2265 41.5329C34.4799 41.5329 33.8799 40.9329 33.8799 40.1995C33.8799 39.4662 34.4799 38.8662 35.2132 38.8662C35.9465 38.8662 36.5465 39.4662 36.5465 40.1995C36.5465 40.9329 35.9599 41.5329 35.2265 41.5329Z" fill="white"/>
    </svg>
    