<svg width="80" height="80" viewBox="0 0 80 80" fill="none" xmlns="http://www.w3.org/2000/svg">
<rect width="80" height="80" rx="40" fill="#1971F6"/>
<path d="M52 54.333H28C27.4533 54.333 27 53.8797 27 53.333C27 52.7863 27.4533 52.333 28 52.333H52C52.5467 52.333 53 52.7863 53 53.333C53 53.8797 52.5467 54.333 52 54.333Z" fill="white"/>
<path d="M31.4666 50.3338H29.3333C28.0533 50.3338 27 49.2805 27 48.0005V36.5072C27 35.2272 28.0533 34.1738 29.3333 34.1738H31.4666C32.7466 34.1738 33.8 35.2272 33.8 36.5072V48.0005C33.8 49.2805 32.7466 50.3338 31.4666 50.3338ZM29.3333 36.1605C29.1467 36.1605 29 36.3071 29 36.4938V48.0005C29 48.1872 29.1467 48.3338 29.3333 48.3338H31.4666C31.6533 48.3338 31.8 48.1872 31.8 48.0005V36.5072C31.8 36.3205 31.6533 36.1738 31.4666 36.1738H29.3333V36.1605Z" fill="white"/>
<path d="M41.0667 50.3333H38.9334C37.6534 50.3333 36.6001 49.2799 36.6001 47.9999V32.2533C36.6001 30.9733 37.6534 29.9199 38.9334 29.9199H41.0667C42.3467 29.9199 43.4001 30.9733 43.4001 32.2533V47.9999C43.4001 49.2799 42.3467 50.3333 41.0667 50.3333ZM38.9334 31.9199C38.7468 31.9199 38.6001 32.0666 38.6001 32.2533V47.9999C38.6001 48.1866 38.7468 48.3333 38.9334 48.3333H41.0667C41.2534 48.3333 41.4001 48.1866 41.4001 47.9999V32.2533C41.4001 32.0666 41.2534 31.9199 41.0667 31.9199H38.9334Z" fill="white"/>
<path d="M50.6663 50.3337H48.533C47.253 50.3337 46.1997 49.2803 46.1997 48.0003V28.0003C46.1997 26.7203 47.253 25.667 48.533 25.667H50.6663C51.9463 25.667 52.9997 26.7203 52.9997 28.0003V48.0003C52.9997 49.2803 51.9463 50.3337 50.6663 50.3337ZM48.533 27.667C48.3464 27.667 48.1997 27.8137 48.1997 28.0003V48.0003C48.1997 48.187 48.3464 48.3337 48.533 48.3337H50.6663C50.853 48.3337 50.9997 48.187 50.9997 48.0003V28.0003C50.9997 27.8137 50.853 27.667 50.6663 27.667H48.533Z" fill="white"/>
</svg>
