<svg width="20" height="20" viewBox="0 0 20 20" fill="none" xmlns="http://www.w3.org/2000/svg">
    <path d="M17.0832 18.958H2.9165C2.57484 18.958 2.2915 18.6747 2.2915 18.333C2.2915 17.9913 2.57484 17.708 2.9165 17.708H17.0832C17.4248 17.708 17.7082 17.9913 17.7082 18.333C17.7082 18.6747 17.4248 18.958 17.0832 18.958Z" fill="#04B306"/>
    <path d="M15.8335 15.2085C15.6752 15.2085 15.5169 15.1502 15.3919 15.0252L3.7252 3.35853C3.48353 3.11686 3.48353 2.71686 3.7252 2.4752C3.96686 2.23353 4.36686 2.23353 4.60853 2.4752L16.2752 14.1419C16.5169 14.3835 16.5169 14.7835 16.2752 15.0252C16.1502 15.1502 15.9919 15.2085 15.8335 15.2085Z" fill="#04B306"/>
    <path d="M4.1665 12.1003C3.82484 12.1003 3.5415 11.817 3.5415 11.4753V2.91699C3.5415 2.57533 3.82484 2.29199 4.1665 2.29199H12.7248C13.0665 2.29199 13.3498 2.57533 13.3498 2.91699C13.3498 3.25866 13.0665 3.54199 12.7248 3.54199H4.7915V11.4753C4.7915 11.817 4.50817 12.1003 4.1665 12.1003Z" fill="#04B306"/>
    </svg>
    