<svg width="80" height="80" viewBox="0 0 80 80" fill="none" xmlns="http://www.w3.org/2000/svg">
    <rect width="80" height="80" rx="40" fill="#25C205"/>
    <path d="M33.1733 49.2004C32.6267 49.2004 32.1733 48.7471 32.1733 48.2004V45.4404C32.1733 44.8938 32.6267 44.4404 33.1733 44.4404C33.72 44.4404 34.1733 44.8938 34.1733 45.4404V48.2004C34.1733 48.7604 33.72 49.2004 33.1733 49.2004Z" fill="white"/>
    <path d="M40 49.2003C39.4533 49.2003 39 48.747 39 48.2003V42.667C39 42.1203 39.4533 41.667 40 41.667C40.5467 41.667 41 42.1203 41 42.667V48.2003C41 48.7603 40.5467 49.2003 40 49.2003Z" fill="white"/>
    <path d="M46.8267 49.1996C46.28 49.1996 45.8267 48.7462 45.8267 48.1996V39.9062C45.8267 39.3596 46.28 38.9062 46.8267 38.9062C47.3733 38.9062 47.8267 39.3596 47.8267 39.9062V48.1996C47.8267 48.7596 47.3867 49.1996 46.8267 49.1996Z" fill="white"/>
    <path d="M33.1734 41.5739C32.7201 41.5739 32.3201 41.2672 32.2001 40.8139C32.0668 40.2805 32.3868 39.7339 32.9334 39.6005C37.8401 38.3739 42.1601 35.6939 45.4534 31.8672L46.0668 31.1472C46.4268 30.7339 47.0534 30.6805 47.4801 31.0405C47.8934 31.4005 47.9468 32.0272 47.5868 32.4539L46.9734 33.1739C43.4134 37.3339 38.7201 40.2272 33.4134 41.5472C33.3334 41.5739 33.2534 41.5739 33.1734 41.5739Z" fill="white"/>
    <path d="M46.8266 36.6931C46.2799 36.6931 45.8266 36.2398 45.8266 35.6931V32.7998H42.9199C42.3733 32.7998 41.9199 32.3465 41.9199 31.7998C41.9199 31.2531 42.3733 30.7998 42.9199 30.7998H46.8266C47.3733 30.7998 47.8266 31.2531 47.8266 31.7998V35.7065C47.8266 36.2531 47.3866 36.6931 46.8266 36.6931Z" fill="white"/>
    <path d="M43.9998 54.3337H35.9998C28.7598 54.3337 25.6665 51.2403 25.6665 44.0003V36.0003C25.6665 28.7603 28.7598 25.667 35.9998 25.667H43.9998C51.2398 25.667 54.3332 28.7603 54.3332 36.0003V44.0003C54.3332 51.2403 51.2398 54.3337 43.9998 54.3337ZM35.9998 27.667C29.8532 27.667 27.6665 29.8537 27.6665 36.0003V44.0003C27.6665 50.147 29.8532 52.3337 35.9998 52.3337H43.9998C50.1465 52.3337 52.3332 50.147 52.3332 44.0003V36.0003C52.3332 29.8537 50.1465 27.667 43.9998 27.667H35.9998Z" fill="white"/>
    </svg>
    